<svg width="562" height="31" viewBox="0 0 562 31" fill="none" xmlns="http://www.w3.org/2000/svg">
<path d="M532.581 30.0001H528.301V0.0625H530.43C531.822 0.0625 533.297 0.243434 534.856 0.605301C536.429 0.967168 538.029 1.48909 539.658 2.17107C541.286 2.85305 542.908 3.68117 544.522 4.65543C546.151 5.61577 547.723 6.70833 549.24 7.93311C550.757 9.1579 552.184 10.494 553.52 11.9415C554.856 13.375 556.053 14.906 557.111 16.5344V0.0625H561.391V30.0001H557.111C557.111 27.801 556.728 25.6855 555.963 23.6535C555.197 21.6075 554.174 19.6799 552.894 17.8705C551.613 16.0612 550.138 14.398 548.468 12.881C546.798 11.35 545.051 10.0069 543.228 8.8517C541.419 7.69651 539.595 6.75009 537.758 6.01243C535.921 5.26086 534.195 4.75982 532.581 4.50929V30.0001Z" fill="white"/>
<path d="M513.426 15.0313C513.426 17.1051 513.099 19.0536 512.445 20.8768C511.791 22.7001 510.858 24.2867 509.647 25.6368C508.45 26.9868 507.01 28.0515 505.326 28.831C503.642 29.6104 501.77 30.0001 499.71 30.0001H489.751C487.678 30.0001 485.792 29.6104 484.094 28.831C482.396 28.0515 480.941 26.9868 479.73 25.6368C478.534 24.2867 477.608 22.7001 476.954 20.8768C476.3 19.0536 475.973 17.1051 475.973 15.0313C475.973 12.9714 476.3 11.0368 476.954 9.22749C477.608 7.40423 478.534 5.81758 479.73 4.46754C480.941 3.10358 482.396 2.03189 484.094 1.25249C485.792 0.459162 487.678 0.0625 489.751 0.0625H499.71C501.77 0.0625 503.642 0.459162 505.326 1.25249C507.01 2.03189 508.45 3.10358 509.647 4.46754C510.858 5.81758 511.791 7.40423 512.445 9.22749C513.099 11.0368 513.426 12.9714 513.426 15.0313ZM509.146 15.0313C509.146 13.556 508.93 12.1711 508.499 10.8768C508.067 9.58239 507.441 8.45504 506.62 7.4947C505.813 6.52044 504.825 5.75495 503.655 5.19823C502.5 4.6276 501.185 4.34228 499.71 4.34228H489.751C488.276 4.34228 486.947 4.6276 485.764 5.19823C484.595 5.75495 483.6 6.52044 482.779 7.4947C481.971 8.45504 481.345 9.58239 480.9 10.8768C480.468 12.1711 480.252 13.556 480.252 15.0313C480.252 16.5066 480.468 17.8984 480.9 19.2067C481.345 20.501 481.971 21.6354 482.779 22.6096C483.6 23.57 484.595 24.3285 485.764 24.8852C486.947 25.4419 488.276 25.7203 489.751 25.7203H499.71C501.185 25.7203 502.5 25.4419 503.655 24.8852C504.825 24.3285 505.813 23.57 506.62 22.6096C507.441 21.6354 508.067 20.501 508.499 19.2067C508.93 17.8984 509.146 16.5066 509.146 15.0313Z" fill="white"/>
<path d="M338.409 29.9375L354.15 -6.28366e-05L359.036 -6.24095e-05L374.756 29.9375L369.892 29.9375L356.593 4.61375L343.294 29.9375L338.409 29.9375Z" fill="white"/>
<path d="M323.864 15.0313C323.864 17.1051 323.537 19.0536 322.882 20.8768C322.228 22.7001 321.296 24.2867 320.085 25.6368C318.888 26.9868 317.447 28.0515 315.763 28.831C314.079 29.6104 312.207 30.0001 310.147 30.0001H300.189C298.115 30.0001 296.23 29.6104 294.532 28.831C292.834 28.0515 291.379 26.9868 290.168 25.6368C288.971 24.2867 288.046 22.7001 287.392 20.8768C286.737 19.0536 286.41 17.1051 286.41 15.0313C286.41 12.9714 286.737 11.0368 287.392 9.22749C288.046 7.40423 288.971 5.81758 290.168 4.46754C291.379 3.10358 292.834 2.03189 294.532 1.25249C296.23 0.459162 298.115 0.0625 300.189 0.0625H310.147C312.207 0.0625 314.079 0.459162 315.763 1.25249C317.447 2.03189 318.888 3.10358 320.085 4.46754C321.296 5.81758 322.228 7.40423 322.882 9.22749C323.537 11.0368 323.864 12.9714 323.864 15.0313ZM319.584 15.0313C319.584 13.556 319.368 12.1711 318.937 10.8768C318.505 9.58239 317.879 8.45504 317.058 7.4947C316.251 6.52044 315.262 5.75495 314.093 5.19823C312.938 4.6276 311.623 4.34228 310.147 4.34228H300.189C298.714 4.34228 297.385 4.6276 296.202 5.19823C295.033 5.75495 294.037 6.52044 293.216 7.4947C292.409 8.45504 291.783 9.58239 291.337 10.8768C290.906 12.1711 290.69 13.556 290.69 15.0313C290.69 16.5066 290.906 17.8984 291.337 19.2067C291.783 20.501 292.409 21.6354 293.216 22.6096C294.037 23.57 295.033 24.3285 296.202 24.8852C297.385 25.4419 298.714 25.7203 300.189 25.7203H310.147C311.623 25.7203 312.938 25.4419 314.093 24.8852C315.262 24.3285 316.251 23.57 317.058 22.6096C317.879 21.6354 318.505 20.501 318.937 19.2067C319.368 17.8984 319.584 16.5066 319.584 15.0313Z" fill="white"/>
<path d="M216.055 21.3152L210.272 21.4405H197.162V17.2234H214.343C215.234 17.2234 216.069 17.0563 216.849 16.7223C217.628 16.3744 218.303 15.9081 218.874 15.3236C219.458 14.739 219.917 14.057 220.252 13.2776C220.586 12.4843 220.753 11.6423 220.753 10.7515C220.753 9.86075 220.586 9.02568 220.252 8.24627C219.917 7.46686 219.458 6.79184 218.874 6.2212C218.303 5.63665 217.628 5.17736 216.849 4.84332C216.069 4.50929 215.234 4.34228 214.343 4.34228H194.761V30.0001H190.481V0.0625H214.343C215.819 0.0625 217.203 0.347819 218.498 0.918456C219.792 1.47517 220.92 2.24066 221.88 3.21492C222.854 4.17526 223.62 5.30262 224.176 6.59699C224.747 7.89136 225.032 9.2762 225.032 10.7515C225.032 12.0876 224.803 13.3542 224.343 14.5511C223.884 15.7341 223.251 16.7989 222.444 17.7453C221.636 18.6778 220.683 19.4572 219.583 20.0835C218.498 20.6959 217.322 21.1065 216.055 21.3152Z" fill="white"/>
<path d="M175.753 30.0001H144.792V0.0625H175.753V4.34228H149.072V25.7203H175.753V30.0001ZM172.12 17.1816H151.201V12.9018H172.12V17.1816Z" fill="white"/>
<path d="M34.8019 30.0001H29.0399L13.7579 14.6137L4.27978 21.4405V30.0001H0V0.0625H4.27978V16.7432L27.7455 0.0625H33.9877L17.0147 12.2546L34.8019 30.0001Z" fill="white"/>
<path d="M81.5263 0L81.4845 30H77.1958L77.0912 25.6276C76.1846 26.5342 75.1735 27.3152 74.0577 27.9707C72.9559 28.6123 71.7704 29.1144 70.5012 29.477C69.2321 29.8257 67.9071 30 66.5263 30H63.3673C61.9866 30 60.6547 29.8257 59.3715 29.477C58.1024 29.1144 56.9099 28.6053 55.7941 27.9498C54.6923 27.2943 53.6881 26.5133 52.7816 25.6067C51.875 24.6862 51.094 23.675 50.4385 22.5732C49.7969 21.4575 49.2948 20.265 48.9322 18.9958C48.5835 17.7127 48.4092 16.3808 48.4092 15V0H52.6979V15C52.6979 16.4784 52.9768 17.8731 53.5347 19.1841C54.0926 20.4812 54.8527 21.6179 55.815 22.5941C56.7913 23.5565 57.928 24.3166 59.2251 24.8745C60.5222 25.4324 61.9029 25.7113 63.3673 25.7113H66.5263C68.0047 25.7113 69.3925 25.4324 70.6895 24.8745C71.9866 24.3166 73.1163 23.5565 74.0786 22.5941C75.041 21.6179 75.8011 20.4812 76.359 19.1841C76.9168 17.8731 77.1958 16.4784 77.1958 15V30V0H81.4845H81.5263Z" fill="white"/>
<path d="M417.526 0L417.484 30H413.196L413.091 25.6276C412.185 26.5342 411.173 27.3152 410.058 27.9707C408.956 28.6123 407.77 29.1144 406.501 29.477C405.232 29.8257 403.907 30 402.526 30H399.367C397.987 30 396.655 29.8257 395.372 29.477C394.102 29.1144 392.91 28.6053 391.794 27.9498C390.692 27.2943 389.688 26.5133 388.782 25.6067C387.875 24.6862 387.094 23.675 386.438 22.5732C385.797 21.4575 385.295 20.265 384.932 18.9958C384.584 17.7127 384.409 16.3808 384.409 15V0H388.698V15C388.698 16.4784 388.977 17.8731 389.535 19.1841C390.093 20.4812 390.853 21.6179 391.815 22.5941C392.791 23.5565 393.928 24.3166 395.225 24.8745C396.522 25.4324 397.903 25.7113 399.367 25.7113H402.526C404.005 25.7113 405.392 25.4324 406.69 24.8745C407.987 24.3166 409.116 23.5565 410.079 22.5941C411.041 21.6179 411.801 20.4812 412.359 19.1841C412.917 17.8731 413.196 16.4784 413.196 15V30V0H417.484H417.526Z" fill="white"/>
<path d="M130.94 21.5541C130.94 22.7609 130.708 23.8905 130.245 24.9429C129.796 25.9813 129.179 26.8935 128.393 27.6793C127.621 28.4511 126.709 29.0615 125.656 29.5105C124.604 29.9596 123.488 30.1841 122.31 30.1841H101.871V25.8691H122.31C122.899 25.8691 123.453 25.7568 123.973 25.5323C124.506 25.3078 124.969 24.9991 125.362 24.6062C125.755 24.2132 126.063 23.7572 126.288 23.238C126.512 22.7047 126.625 22.1434 126.625 21.5541C126.625 20.9647 126.512 20.4104 126.288 19.8912C126.063 19.372 125.755 18.9159 125.362 18.523C124.969 18.1301 124.506 17.8214 123.973 17.5969C123.453 17.3724 122.899 17.2601 122.31 17.2601H101.871V12.9451H117.995H119.69C121.809 12.9458 122.485 12.6642 125.367 13.3676V4.31502H99.7242V30.1841H95.4092V0H117.995C119.173 0 120.289 0.231537 121.341 0.694613C122.394 1.14366 123.306 1.76109 124.078 2.54692C124.864 3.31871 125.367 4.31502 125.367 4.31502V13.3676C125.367 13.3676 126.765 14.1589 127.467 14.6921C128.182 15.2254 128.793 15.8428 129.298 16.5444C129.817 17.2461 130.217 18.0249 130.498 18.8809C130.792 19.7228 130.94 20.6139 130.94 21.5541Z" fill="white"/>
<path d="M466.367 4.31502H440.724V30.1841H436.409V0H458.995C460.173 0 461.289 0.231537 462.341 0.694613C463.394 1.14366 464.306 1.76109 465.078 2.54692C465.864 3.31871 466.367 4.31502 466.367 4.31502Z" fill="white"/>
<path d="M273.909 30H269.818C269.818 30 270.159 8.98187 269.818 8.20084C269.477 7.4198 269.008 6.74338 268.411 6.17155C267.828 5.58577 267.138 5.12552 266.342 4.79079C265.546 4.45607 264.693 4.2887 263.783 4.2887H243.781V30H239.409V0H263.783C265.29 0 266.705 0.285913 268.027 0.85774C269.349 1.41562 270.5 2.18271 271.481 3.159C272.476 4.12134 273.258 5.25105 273.827 6.54812C274.41 7.84519 273.909 30 273.909 30Z" fill="white"/>
</svg>
