<svg width="1159" height="123" viewBox="0 0 1159 123" fill="none" xmlns="http://www.w3.org/2000/svg">
<path d="M0 6.9121L6.20447 0.270752H167.207V36.9618H36.6911H0V6.9121Z" fill="white"/>
<path d="M0 44.949L36.6927 44.9478V77.6727L40.7816 81.7513H167.206V118.456H24.528L0 94.0448V44.949Z" fill="white"/>
<path d="M611.844 0.159424H750.508L782.991 28.5989V36.9302H611.844L611.849 45.0232H648.487V77.5883L652.629 81.7624H746.467V40.9345L742.341 36.9302H611.844H782.991V118.438H611.844V36.9302V0.159424Z" fill="white"/>
<path d="M420.146 0.159424H558.849L591.519 28.7204L550.692 40.9769H420.146H456.806L456.945 118.533H554.779V77.668H464.953V40.9769H550.692V32.7779H420.146L420.146 40.9769H550.692L591.519 28.7204V118.533H554.779H456.945H420.146V40.9769L420.146 0.159424Z" fill="white"/>
<path d="M807.578 4.27173H974.902V41.0425H807.578V49.1476H840.238V122.598L840.282 81.7723L848.378 89.8467H974.902V81.7723H848.378V49.1476H840.238H974.902V41.0425H938.172H807.578H974.902V122.598H840.238L807.578 94.0319V41.0425V4.27173Z" fill="white"/>
<path d="M187.777 0H224.494V118.613H187.777V0Z" fill="white"/>
<path d="M995.114 4.38306H1027.72V81.796L1035.89 89.9691H1158.24V122.598H1019.59L995.114 98.0684V4.38306Z" fill="white"/>
<path d="M301.833 39.6379L297.739 35.6961H236.654V0.112793H310.006H403.843V35.6711H358.949L322.259 0.112793H310.006L338.54 27.8122V118.518H301.833V39.6379Z" fill="white"/>
</svg>
