<svg width="1379" height="146" viewBox="0 0 1379 146" fill="none" xmlns="http://www.w3.org/2000/svg">
<path d="M1.1093 42.8976V8.66697L7.86886 1.43144H197.968V42.8976H43.6846H1.1093Z" stroke="#273940" stroke-width="2.21835"/>
<path d="M42.5774 54.6242V92.4774V92.9376L42.9033 93.2627L47.7715 98.1186L48.0962 98.4425H48.5548H197.967V139.925H29.6611L1.1093 111.509V54.6255L42.5774 54.6242Z" stroke="#273940" stroke-width="2.21835"/>
<path d="M931.121 45.0782V139.903H729.571V54.7138H770.98V92.3767V92.8337L771.302 93.158L776.234 98.1278L776.559 98.4556H777.021H888.744H889.853V97.3465V48.7366V48.2675L889.516 47.9407L886.567 45.0782H931.121ZM883.832 42.8599H729.571V1.29887H893.138L931.121 34.5529V42.8599H884.281H883.832Z" stroke="#273940" stroke-width="2.21835"/>
<path d="M664.949 1.29887L702.023 33.709L656.764 47.296V39.0253V37.9161H655.654H501.335L501.336 1.29887H664.949ZM656.764 49.6122L703.154 35.6855V140.017H661.63V92.4716V91.3624H660.521H554.682V49.8962H655.654H655.817H656.764V49.6122ZM501.335 49.8962H542.766L542.928 140.017H501.335V49.8962Z" stroke="#273940" stroke-width="2.21835"/>
<path d="M1159.61 59.6244V96.2491H1011.19V59.6244H1159.61ZM962.612 59.6244H999.279V143.521L962.612 111.451V59.6244ZM1159.61 108.081V144.856H1001.5L1001.55 100.028L1009.3 107.757L1009.62 108.081H1010.08H1159.61ZM962.612 6.19511H1159.61V47.7561H1116.99H962.612V6.19511Z" stroke="#273940" stroke-width="2.21835"/>
<path d="M224.676 1.10918H266.173V140.112H224.676V1.10918Z" stroke="#273940" stroke-width="2.21835"/>
<path d="M1185.89 116.302V6.32768H1222.49V97.3866V97.846L1222.82 98.1709L1232.55 107.902L1232.87 108.227H1233.33H1377.89V144.856H1214.39L1185.89 116.302Z" stroke="#273940" stroke-width="2.21835"/>
<path d="M360.472 47.1929V46.7211L360.132 46.3939L355.257 41.7007L354.935 41.3906H354.488H282.87V1.24345H368.644L401.957 33.5824V139.999H360.472V47.1929ZM427.815 41.3609L386.42 1.24345H479.707V41.3609H427.815Z" stroke="#273940" stroke-width="2.21835"/>
</svg>
