<svg width="833" height="268" viewBox="0 0 833 268" fill="none" xmlns="http://www.w3.org/2000/svg">
<path opacity="0.1" d="M391.715 77.9539H700.457C731.459 77.9539 756.591 103.086 756.591 134.089C756.591 165.091 731.459 190.223 700.457 190.223H391.715C360.713 190.223 335.58 165.091 335.58 134.089C335.58 103.086 360.713 77.9539 391.715 77.9539Z" fill="url(#paint0_linear_138_531)" fill-opacity="0.05" stroke="url(#paint1_linear_138_531)" stroke-width="1.47723"/>
<path opacity="0.2" d="M391.715 95.6804H700.456C721.668 95.6804 738.864 112.876 738.864 134.088C738.864 155.301 721.668 172.496 700.456 172.496H391.715C370.503 172.496 353.307 155.301 353.307 134.088C353.307 112.876 370.503 95.6804 391.715 95.6804Z" fill="url(#paint2_linear_138_531)" fill-opacity="0.05" stroke="url(#paint3_linear_138_531)" stroke-width="1.47723"/>
<path d="M390.239 112.668H698.98C710.81 112.668 720.4 122.258 720.4 134.088C720.4 145.918 710.81 155.508 698.98 155.508H390.239C378.409 155.508 368.819 145.918 368.819 134.088C368.819 122.258 378.409 112.668 390.239 112.668Z" fill="url(#paint4_radial_138_531)" fill-opacity="0.2"/>
<path d="M390.238 113.406H698.979C710.401 113.406 719.66 122.666 719.66 134.088C719.66 145.51 710.401 154.769 698.979 154.769H390.238C378.816 154.769 369.557 145.51 369.557 134.088C369.557 122.666 378.816 113.406 390.238 113.406Z" stroke="url(#paint5_linear_138_531)" stroke-opacity="0.5" stroke-width="1.47723"/>
<path d="M691.593 134.089C691.593 131.233 693.908 128.918 696.764 128.918C699.619 128.918 701.934 131.233 701.934 134.089C701.934 136.944 699.619 139.259 696.764 139.259C693.908 139.259 691.593 136.944 691.593 134.089Z" fill="url(#paint6_linear_138_531)" stroke="url(#paint7_radial_138_531)" stroke-width="1.47723"/>
<g opacity="0.8" filter="url(#filter0_f_138_531)">
<path d="M720.4 133.35C720.4 121.928 711.14 112.668 699.718 112.668C688.296 112.668 679.037 121.928 679.037 133.35V134.827C679.037 146.249 688.296 155.508 699.718 155.508C711.14 155.508 720.4 146.249 720.4 134.827V133.35Z" fill="#A73B62"/>
</g>
<path opacity="0.1" d="M602.538 237.708L94.0298 237.708C42.9677 237.708 1.57373 196.314 1.57372 145.252C1.57372 94.1899 42.9677 52.7959 94.0298 52.7959L602.538 52.7958C653.6 52.7958 694.994 94.1898 694.994 145.252C694.994 196.314 653.6 237.708 602.538 237.708Z" fill="url(#paint8_linear_138_531)" fill-opacity="0.05" stroke="url(#paint9_linear_138_531)" stroke-width="2.43305"/>
<path opacity="0.2" d="M602.539 208.512L94.0307 208.512C59.0934 208.512 30.7712 180.19 30.7712 145.252C30.7712 110.315 59.0934 81.9929 94.0306 81.9929L602.539 81.9929C637.476 81.9929 665.798 110.315 665.798 145.252C665.798 180.189 637.476 208.512 602.539 208.512Z" fill="url(#paint10_linear_138_531)" fill-opacity="0.05" stroke="url(#paint11_linear_138_531)" stroke-width="2.43305"/>
<defs>
<filter id="filter0_f_138_531" x="566.768" y="0.398895" width="265.902" height="267.379" filterUnits="userSpaceOnUse" color-interpolation-filters="sRGB">
<feFlood flood-opacity="0" result="BackgroundImageFix"/>
<feBlend mode="normal" in="SourceGraphic" in2="BackgroundImageFix" result="shape"/>
<feGaussianBlur stdDeviation="56.1348" result="effect1_foregroundBlur_138_531"/>
</filter>
<linearGradient id="paint0_linear_138_531" x1="708.317" y1="77.9539" x2="533.911" y2="159.178" gradientUnits="userSpaceOnUse">
<stop stop-color="#A73B62"/>
<stop offset="1" stop-color="#14303C" stop-opacity="0"/>
</linearGradient>
<linearGradient id="paint1_linear_138_531" x1="673.866" y1="88.2945" x2="628.072" y2="165.11" gradientUnits="userSpaceOnUse">
<stop stop-color="#A73B62"/>
<stop offset="0.975" stop-color="#242C2A" stop-opacity="0"/>
<stop offset="1" stop-color="#232A27" stop-opacity="0"/>
</linearGradient>
<linearGradient id="paint2_linear_138_531" x1="659.094" y1="115.623" x2="546.085" y2="173.235" gradientUnits="userSpaceOnUse">
<stop stop-color="#A73B62"/>
<stop offset="0.94" stop-color="#294550" stop-opacity="0"/>
</linearGradient>
<linearGradient id="paint3_linear_138_531" x1="747.424" y1="74.1678" x2="678.717" y2="131.18" gradientUnits="userSpaceOnUse">
<stop stop-color="#A73B62"/>
<stop offset="1" stop-color="#232A27" stop-opacity="0"/>
</linearGradient>
<radialGradient id="paint4_radial_138_531" cx="0" cy="0" r="1" gradientUnits="userSpaceOnUse" gradientTransform="translate(697.238 134.088) rotate(180) scale(325.923 268.774)">
<stop stop-color="#A73B62"/>
<stop offset="1" stop-opacity="0"/>
</radialGradient>
<linearGradient id="paint5_linear_138_531" x1="698.241" y1="115.264" x2="697.093" y2="123.102" gradientUnits="userSpaceOnUse">
<stop stop-color="#A73B62"/>
<stop offset="1" stop-color="#091F28" stop-opacity="0"/>
</linearGradient>
<linearGradient id="paint6_linear_138_531" x1="696.764" y1="128.18" x2="696.764" y2="139.997" gradientUnits="userSpaceOnUse">
<stop stop-color="#A73B62"/>
<stop offset="1" stop-color="#5A2337"/>
</linearGradient>
<radialGradient id="paint7_radial_138_531" cx="0" cy="0" r="1" gradientUnits="userSpaceOnUse" gradientTransform="translate(697.266 128.18) rotate(92.4316) scale(11.8285 12.9602)">
<stop stop-color="white" stop-opacity="0.48"/>
<stop offset="1" stop-color="white" stop-opacity="0.04"/>
</radialGradient>
<linearGradient id="paint8_linear_138_531" x1="81.0833" y1="237.708" x2="368.337" y2="103.929" gradientUnits="userSpaceOnUse">
<stop stop-color="#A73B62"/>
<stop offset="1" stop-color="#14303C" stop-opacity="0"/>
</linearGradient>
<linearGradient id="paint9_linear_138_531" x1="137.825" y1="220.677" x2="213.249" y2="94.1578" gradientUnits="userSpaceOnUse">
<stop stop-color="#A73B62"/>
<stop offset="0.975" stop-color="#242C2A" stop-opacity="0"/>
<stop offset="1" stop-color="#232A27" stop-opacity="0"/>
</linearGradient>
<linearGradient id="paint10_linear_138_531" x1="162.156" y1="175.665" x2="348.285" y2="80.7763" gradientUnits="userSpaceOnUse">
<stop stop-color="#A73B62"/>
<stop offset="0.94" stop-color="#294550" stop-opacity="0"/>
</linearGradient>
<linearGradient id="paint11_linear_138_531" x1="16.6733" y1="243.944" x2="129.836" y2="150.043" gradientUnits="userSpaceOnUse">
<stop stop-color="#A73B62"/>
<stop offset="1" stop-color="#232A27" stop-opacity="0"/>
</linearGradient>
</defs>
</svg>
