<svg width="812" height="268" viewBox="0 0 812 268" fill="none" xmlns="http://www.w3.org/2000/svg">
<path opacity="0.1" d="M441.45 77.7083H132.708C101.706 77.7083 76.5736 102.841 76.5736 133.843C76.5736 164.845 101.706 189.978 132.708 189.978H441.45C472.452 189.978 497.584 164.845 497.584 133.843C497.584 102.841 472.452 77.7083 441.45 77.7083Z" fill="url(#paint0_linear_138_581)" fill-opacity="0.05" stroke="url(#paint1_linear_138_581)" stroke-width="1.47723"/>
<path opacity="0.2" d="M441.45 95.4348H132.709C111.497 95.4348 94.3009 112.631 94.3009 133.843C94.3009 155.055 111.497 172.251 132.709 172.251H441.45C462.662 172.251 479.858 155.055 479.858 133.843C479.858 112.631 462.662 95.4348 441.45 95.4348Z" fill="url(#paint2_linear_138_581)" fill-opacity="0.05" stroke="url(#paint3_linear_138_581)" stroke-width="1.47723"/>
<path d="M442.926 112.423H134.185C122.355 112.423 112.765 122.013 112.765 133.843C112.765 145.673 122.355 155.263 134.185 155.263H442.926C454.756 155.263 464.346 145.673 464.346 133.843C464.346 122.013 454.756 112.423 442.926 112.423Z" fill="url(#paint4_radial_138_581)" fill-opacity="0.2"/>
<path d="M442.927 113.161H134.186C122.764 113.161 113.505 122.42 113.505 133.842C113.505 145.264 122.764 154.523 134.186 154.523H442.927C454.349 154.523 463.608 145.264 463.608 133.842C463.608 122.42 454.349 113.161 442.927 113.161Z" stroke="url(#paint5_linear_138_581)" stroke-opacity="0.5" stroke-width="1.47723"/>
<path d="M141.571 133.843C141.571 130.987 139.257 128.673 136.401 128.673C133.546 128.673 131.231 130.987 131.231 133.843C131.231 136.698 133.546 139.013 136.401 139.013C139.257 139.013 141.571 136.698 141.571 133.843Z" fill="url(#paint6_linear_138_581)" stroke="url(#paint7_radial_138_581)" stroke-width="1.47723"/>
<g opacity="0.8" filter="url(#filter0_f_138_581)">
<path d="M112.765 133.104C112.765 121.682 122.025 112.423 133.446 112.423C144.868 112.423 154.128 121.682 154.128 133.104V134.581C154.128 146.003 144.868 155.263 133.446 155.263C122.025 155.263 112.765 146.003 112.765 134.581V133.104Z" fill="#69BADA"/>
</g>
<path opacity="0.1" d="M209.354 262.62L717.862 262.62C768.924 262.62 810.318 221.226 810.318 170.164C810.318 119.102 768.924 77.708 717.862 77.708L209.354 77.708C158.292 77.708 116.898 119.102 116.898 170.164C116.898 221.226 158.292 262.62 209.354 262.62Z" fill="url(#paint8_linear_138_581)" fill-opacity="0.05" stroke="url(#paint9_linear_138_581)" stroke-width="2.43305"/>
<path opacity="0.2" d="M209.353 233.424L717.861 233.424C752.799 233.424 781.121 205.102 781.121 170.164C781.121 135.227 752.799 106.905 717.861 106.905L209.353 106.905C174.416 106.905 146.094 135.227 146.094 170.164C146.094 205.102 174.416 233.424 209.353 233.424Z" fill="url(#paint10_linear_138_581)" fill-opacity="0.05" stroke="url(#paint11_linear_138_581)" stroke-width="2.43305"/>
<defs>
<filter id="filter0_f_138_581" x="0.495697" y="0.15329" width="265.902" height="267.379" filterUnits="userSpaceOnUse" color-interpolation-filters="sRGB">
<feFlood flood-opacity="0" result="BackgroundImageFix"/>
<feBlend mode="normal" in="SourceGraphic" in2="BackgroundImageFix" result="shape"/>
<feGaussianBlur stdDeviation="56.1348" result="effect1_foregroundBlur_138_581"/>
</filter>
<linearGradient id="paint0_linear_138_581" x1="124.848" y1="77.7082" x2="299.254" y2="158.932" gradientUnits="userSpaceOnUse">
<stop stop-color="#69BADA"/>
<stop offset="1" stop-color="#14303C" stop-opacity="0"/>
</linearGradient>
<linearGradient id="paint1_linear_138_581" x1="159.299" y1="88.0489" x2="205.093" y2="164.865" gradientUnits="userSpaceOnUse">
<stop stop-color="#69BADA"/>
<stop offset="0.975" stop-color="#242C2A" stop-opacity="0"/>
<stop offset="1" stop-color="#232A27" stop-opacity="0"/>
</linearGradient>
<linearGradient id="paint2_linear_138_581" x1="174.071" y1="115.377" x2="287.08" y2="172.989" gradientUnits="userSpaceOnUse">
<stop stop-color="#69BADA"/>
<stop offset="0.94" stop-color="#294550" stop-opacity="0"/>
</linearGradient>
<linearGradient id="paint3_linear_138_581" x1="85.7413" y1="73.9222" x2="154.448" y2="130.934" gradientUnits="userSpaceOnUse">
<stop stop-color="#69BADA"/>
<stop offset="1" stop-color="#232A27" stop-opacity="0"/>
</linearGradient>
<radialGradient id="paint4_radial_138_581" cx="0" cy="0" r="1" gradientUnits="userSpaceOnUse" gradientTransform="translate(135.927 133.843) scale(325.923 268.774)">
<stop stop-color="#69BADA"/>
<stop offset="1" stop-opacity="0"/>
</radialGradient>
<linearGradient id="paint5_linear_138_581" x1="134.924" y1="115.019" x2="136.072" y2="122.856" gradientUnits="userSpaceOnUse">
<stop stop-color="#69BADA"/>
<stop offset="1" stop-color="#091F28" stop-opacity="0"/>
</linearGradient>
<linearGradient id="paint6_linear_138_581" x1="136.401" y1="127.934" x2="136.401" y2="139.752" gradientUnits="userSpaceOnUse">
<stop stop-color="#69BADA"/>
<stop offset="1" stop-color="#31718A"/>
</linearGradient>
<radialGradient id="paint7_radial_138_581" cx="0" cy="0" r="1" gradientUnits="userSpaceOnUse" gradientTransform="translate(135.899 127.934) rotate(87.5684) scale(11.8285 12.9602)">
<stop stop-color="white" stop-opacity="0.48"/>
<stop offset="1" stop-color="white" stop-opacity="0.04"/>
</radialGradient>
<linearGradient id="paint8_linear_138_581" x1="730.809" y1="262.62" x2="443.555" y2="128.841" gradientUnits="userSpaceOnUse">
<stop stop-color="#69BADA"/>
<stop offset="1" stop-color="#14303C" stop-opacity="0"/>
</linearGradient>
<linearGradient id="paint9_linear_138_581" x1="674.067" y1="245.589" x2="598.643" y2="119.07" gradientUnits="userSpaceOnUse">
<stop stop-color="#69BADA"/>
<stop offset="0.975" stop-color="#242C2A" stop-opacity="0"/>
<stop offset="1" stop-color="#232A27" stop-opacity="0"/>
</linearGradient>
<linearGradient id="paint10_linear_138_581" x1="649.736" y1="200.578" x2="463.607" y2="105.688" gradientUnits="userSpaceOnUse">
<stop stop-color="#69BADA"/>
<stop offset="0.94" stop-color="#294550" stop-opacity="0"/>
</linearGradient>
<linearGradient id="paint11_linear_138_581" x1="795.219" y1="268.856" x2="682.056" y2="174.955" gradientUnits="userSpaceOnUse">
<stop stop-color="#69BADA"/>
<stop offset="1" stop-color="#232A27" stop-opacity="0"/>
</linearGradient>
</defs>
</svg>
