<svg width="29" height="24" viewBox="0 0 29 24" fill="none" xmlns="http://www.w3.org/2000/svg">
<path d="M10.7225 22.4653C9.86961 22.4653 10.0219 22.1366 9.71736 21.3295L7.22607 13.1146L22.6939 3.45801L24.5074 3.93902L22.9997 8.0458L10.7225 22.4653Z" fill="#3A658C"/>
<path d="M10.7214 22.4671C11.3763 22.4671 11.6606 22.1612 12.0324 21.8123C12.5997 21.2652 19.897 14.166 19.897 14.166L15.4184 13.0732L11.2685 15.6952L10.7214 22.2488V22.4671Z" fill="#3A658C"/>
<path d="M11.1575 15.7801L21.7316 23.58C22.9335 24.2348 23.8066 23.9074 24.1138 22.4657L28.4172 2.19185C28.8538 0.421412 27.7395 -0.364104 26.5821 0.160022L1.32706 9.90284C-0.398918 10.6008 -0.37736 11.5628 1.02121 11.9778L7.51013 14.0096L22.5185 4.5511C23.2178 4.11455 23.8726 4.35438 23.3484 4.83404L11.1575 15.7801Z" fill="#5D96CA"/>
</svg>
