<svg width="1797" height="874" viewBox="0 0 1797 874" fill="none" xmlns="http://www.w3.org/2000/svg">
<path d="M0 638.917L568.961 342.768V462.158L421.551 602.711L0 809.081V638.917Z" fill="#1F1F22"/>
<path d="M1796.62 638.913L1227.65 342.764V462.153L1375.06 602.707L1796.62 809.077V638.913Z" fill="#1F1F22"/>
<path d="M423.641 636.949L845.191 234.173V441.122L578.663 701.113V1269.2L849.264 1535.44V1748.87L423.641 1327V636.949Z" fill="#1F1F22"/>
<path d="M1368.94 642.843L947.391 234.17V1748.07L1096.3 1400.88V579.996L1215.4 706.393V1269.04L1096.3 1400.88L947.391 1748.07L1368.94 1326.28V642.843Z" fill="#1F1F22"/>
<path d="M138.437 453.667L531.3 248.561L616.922 289.05L115.289 549.155L138.437 453.667Z" fill="#1F1F22"/>
<path d="M1658.17 453.664L1265.31 248.558L1179.69 289.047L1681.32 549.152L1658.17 453.664Z" fill="#1F1F22"/>
<path d="M1081.61 168.459L896.667 0L712.422 168.459V321.93L896.667 144.474L1081.64 321.93L1081.61 168.459Z" fill="#1F1F22"/>
</svg>
