<svg width="1797" height="1183" viewBox="0 0 1797 1183" fill="none" xmlns="http://www.w3.org/2000/svg">
<path d="M0 -93.0833L568.961 -389.232V-269.843L421.551 -129.289L0 77.0811V-93.0833Z" fill="#1F1F22"/>
<path d="M1796.62 -93.0877L1227.65 -389.237V-269.847L1375.06 -129.294L1796.62 77.0767V-93.0877Z" fill="#1F1F22"/>
<path d="M423.641 -95.0517L845.191 -497.827V-290.878L578.663 -30.887V537.196L849.264 803.437V1016.87L423.641 594.999V-95.0517Z" fill="#1F1F22"/>
<path d="M1368.94 -89.1569L947.391 -497.83V1016.07L1096.3 668.881V-152.004L1215.4 -25.6068V537.036L1096.3 668.881L947.391 1016.07L1368.94 594.284V-89.1569Z" fill="#1F1F22"/>
<path d="M1149.27 935.547L1439.05 654.141L1439.05 565.273L1149.27 852.633L1149.27 935.547Z" fill="#1F1F22"/>
<path d="M647.359 935.547L357.584 654.141L357.584 565.273L647.362 852.633L647.359 935.547Z" fill="#1F1F22"/>
<path d="M1127.63 1018.72L947.381 1182.65V1052.79L1127.61 872.264L1127.63 1018.72Z" fill="#1F1F22"/>
<path d="M669.071 1018.72L849.324 1182.65V1052.79L669.097 872.264L669.071 1018.72Z" fill="#1F1F22"/>
</svg>
